<svg xmlns="http://www.w3.org/2000/svg" version="1.1" xmlns:xlink="http://www.w3.org/1999/xlink" xmlns:svgjs="http://svgjs.dev/svgjs" width="1000" height="1000" viewBox="0 0 1000 1000"><rect width="1000" height="1000" fill="#ffffff"></rect><g transform="matrix(0.7,0,0,0.7,149.57575757575756,282.1265587044535)"><svg viewBox="0 0 396 247" data-background-color="#ffffff" preserveAspectRatio="xMidYMid meet" height="623" width="1000" xmlns="http://www.w3.org/2000/svg" xmlns:xlink="http://www.w3.org/1999/xlink"><g id="tight-bounds" transform="matrix(1,0,0,1,0.2400000000000091,-0.09999999999999432)"><svg viewBox="0 0 395.52 247.2" height="247.2" width="395.52"><g><svg></svg></g><g><svg viewBox="0 0 395.52 247.2" height="247.2" width="395.52"><g transform="matrix(1,0,0,1,39.55199999999999,105.6224052244898)"><svg viewBox="0 0 316.416 35.95518955102041" height="35.95518955102041" width="316.416"><g><svg viewBox="0 0 316.416 35.95518955102041" height="35.95518955102041" width="316.416"><g><svg viewBox="0 0 316.416 35.95518955102041" height="35.95518955102041" width="316.416"><g><svg viewBox="0 0 316.416 35.95518955102041" height="35.95518955102041" width="316.416"><g><svg viewBox="0 0 316.416 35.95518955102041" height="35.95518955102041" width="316.416"><g><svg viewBox="0 0 316.416 35.95518955102041" height="35.95518955102041" width="316.416"><g transform="matrix(1,0,0,1,0,0)"><svg width="316.416" viewBox="1.149999976158142 -33.95000076293945 306.2300109863281 34.79999923706055" height="35.95518955102041" data-palette-color="#398378"><path d="M13.5 0L1.15 0 1.15-1.05 2.1-1.35Q3.1-1.7 3.45-2.27 3.8-2.85 3.8-3.85L3.8-3.85 3.8-29.15Q3.8-30.15 3.48-30.75 3.15-31.35 2.15-31.7L2.15-31.7 1.15-32 1.15-33.05 13.5-33.05 13.5-32 12.65-31.75Q11.7-31.4 11.35-30.83 11-30.25 11-29.25L11-29.25 11-17.75 23.45-17.75 23.45-29.25Q23.45-30.25 23.1-30.83 22.75-31.4 21.75-31.75L21.75-31.75 20.95-32 20.95-33.05 33.3-33.05 33.3-32 32.35-31.7Q31.4-31.35 31.03-30.78 30.65-30.2 30.65-29.2L30.65-29.2 30.65-3.85Q30.65-2.85 31.03-2.27 31.4-1.7 32.35-1.35L32.35-1.35 33.3-1.05 33.3 0 20.95 0 20.95-1.05 21.75-1.3Q22.75-1.65 23.1-2.23 23.45-2.8 23.45-3.8L23.45-3.8 23.45-16.25 11-16.25 11-3.8Q11-2.8 11.38-2.23 11.75-1.65 12.7-1.3L12.7-1.3 13.5-1.05 13.5 0ZM60.4 0L35.6 0 35.6-1.05 36.6-1.4Q37.5-1.65 37.85-2.27 38.2-2.9 38.25-4L38.25-4 38.25-29.15Q38.2-30.2 37.9-30.78 37.6-31.35 36.65-31.65L36.65-31.65 35.6-32 35.6-33.05 59.4-33.05 59.75-25.05 58.35-25.05 56.35-29.55Q55.95-30.5 55.45-31.03 54.95-31.55 53.95-31.55L53.95-31.55 45.45-31.55Q45.4-28.45 45.4-25.18 45.4-21.9 45.4-17.8L45.4-17.8 50.35-17.8Q51.35-17.8 51.87-18.32 52.4-18.85 52.85-19.75L52.85-19.75 53.7-21.65 54.8-21.65 54.8-12.4 53.7-12.4 52.8-14.3Q52.4-15.2 51.9-15.75 51.4-16.3 50.4-16.3L50.4-16.3 45.4-16.3Q45.4-12.7 45.4-10.1 45.4-7.5 45.42-5.48 45.45-3.45 45.45-1.5L45.45-1.5 55.05-1.5Q56.05-1.5 56.6-2.02 57.15-2.55 57.5-3.5L57.5-3.5 59.35-8 60.75-8 60.4 0ZM70.15 0L62.5 0 62.5-1.05 63.85-1.45Q64.9-1.75 65.47-2.35 66.05-2.95 66.4-4L66.4-4 76.5-33.2 80.65-33.2 90.7-3.8Q91.1-2.7 91.6-2.13 92.1-1.55 93.2-1.2L93.2-1.2 93.95-1 93.95 0 81.25 0 81.25-1 82.1-1.25Q83.2-1.6 83.42-2.35 83.65-3.1 83.3-4.2L83.3-4.2 81.2-10.65 70.15-10.65 68-4.3Q67.65-3.2 67.8-2.5 67.95-1.8 69.05-1.4L69.05-1.4 70.15-1.05 70.15 0ZM75.85-27.15L70.65-12.1 80.75-12.1 75.85-27.15ZM119.84 0L95.74 0 95.74-1.05 96.74-1.35Q97.79-1.7 98.09-2.27 98.39-2.85 98.39-3.9L98.39-3.9 98.39-29.2Q98.39-30.2 98.09-30.78 97.79-31.35 96.79-31.7L96.79-31.7 95.74-32 95.74-33.05 108.14-33.05 108.14-32 107.19-31.7Q106.24-31.35 105.92-30.75 105.59-30.15 105.59-29.1L105.59-29.1 105.59-1.5 112.94-1.5Q114.64-1.5 115.49-2.35 116.34-3.2 117.09-4.8L117.09-4.8 118.94-8.95 120.34-8.95 119.84 0ZM144.94 0L129.49 0 129.49-1.05 131.49-1.45Q133.59-1.9 133.59-3.9L133.59-3.9 133.59-17.55Q133.59-21.05 133.59-24.55 133.59-28.05 133.54-31.55L133.54-31.55 129.59-31.55Q127.99-31.55 127.24-30.7 126.49-29.85 125.74-28.3L125.74-28.3 123.99-24.6 122.59-24.6 122.84-33.05 151.54-33.05 151.79-24.6 150.39-24.6 148.64-28.3Q147.89-29.85 147.14-30.7 146.39-31.55 144.79-31.55L144.79-31.55 140.79-31.55 140.79-3.9Q140.79-1.85 142.89-1.45L142.89-1.45 144.94-1.05 144.94 0ZM166.29 0L153.94 0 153.94-1.05 154.89-1.35Q155.89-1.7 156.24-2.27 156.59-2.85 156.59-3.85L156.59-3.85 156.59-29.15Q156.59-30.15 156.26-30.75 155.94-31.35 154.94-31.7L154.94-31.7 153.94-32 153.94-33.05 166.29-33.05 166.29-32 165.44-31.75Q164.49-31.4 164.14-30.83 163.79-30.25 163.79-29.25L163.79-29.25 163.79-17.75 176.24-17.75 176.24-29.25Q176.24-30.25 175.89-30.83 175.54-31.4 174.54-31.75L174.54-31.75 173.74-32 173.74-33.05 186.09-33.05 186.09-32 185.14-31.7Q184.19-31.35 183.81-30.78 183.44-30.2 183.44-29.2L183.44-29.2 183.44-3.85Q183.44-2.85 183.81-2.27 184.19-1.7 185.14-1.35L185.14-1.35 186.09-1.05 186.09 0 173.74 0 173.74-1.05 174.54-1.3Q175.54-1.65 175.89-2.23 176.24-2.8 176.24-3.8L176.24-3.8 176.24-16.25 163.79-16.25 163.79-3.8Q163.79-2.8 164.16-2.23 164.54-1.65 165.49-1.3L165.49-1.3 166.29-1.05 166.29 0ZM205.49 0.85L205.49 0.85Q200.64 0.85 196.74-1.15 192.84-3.15 190.56-7.05 188.29-10.95 188.29-16.55L188.29-16.55Q188.29-20.75 189.66-24 191.04-27.25 193.46-29.48 195.89-31.7 199.04-32.83 202.19-33.95 205.74-33.95L205.74-33.95Q208.49-33.95 210.89-33.33 213.29-32.7 215.49-31.5L215.49-31.5 215.69-24.95 214.34-24.95 212.24-28.9Q211.74-29.9 211.16-30.7 210.59-31.5 209.69-31.85L209.69-31.85Q208.44-32.45 206.74-32.45L206.74-32.45Q203.79-32.45 201.36-30.95 198.94-29.45 197.49-25.98 196.04-22.5 196.04-16.5L196.04-16.5Q196.04-10.55 197.41-7.05 198.79-3.55 201.14-2.08 203.49-0.6 206.44-0.6L206.44-0.6Q207.79-0.6 208.64-0.8 209.49-1 210.34-1.35L210.34-1.35Q211.34-1.75 211.89-2.53 212.44-3.3 212.84-4.3L212.84-4.3 214.74-8.85 216.09-8.85 215.89-1.65Q213.74-0.45 211.14 0.2 208.54 0.85 205.49 0.85ZM225.38 0L217.73 0 217.73-1.05 219.08-1.45Q220.13-1.75 220.71-2.35 221.28-2.95 221.63-4L221.63-4 231.73-33.2 235.88-33.2 245.93-3.8Q246.33-2.7 246.83-2.13 247.33-1.55 248.43-1.2L248.43-1.2 249.18-1 249.18 0 236.48 0 236.48-1 237.33-1.25Q238.43-1.6 238.66-2.35 238.88-3.1 238.53-4.2L238.53-4.2 236.43-10.65 225.38-10.65 223.23-4.3Q222.88-3.2 223.03-2.5 223.18-1.8 224.28-1.4L224.28-1.4 225.38-1.05 225.38 0ZM231.08-27.15L225.88-12.1 235.98-12.1 231.08-27.15ZM263.53 0L250.98 0 250.98-1.05 252.03-1.35Q253.03-1.65 253.31-2.23 253.58-2.8 253.58-3.85L253.58-3.85Q253.63-6.75 253.63-9.65 253.63-12.55 253.63-15.5L253.63-15.5 253.63-17.55Q253.63-20.45 253.63-23.35 253.63-26.25 253.58-29.15L253.58-29.15Q253.58-30.2 253.33-30.78 253.08-31.35 252.08-31.65L252.08-31.65 250.98-32 250.98-33.05 264.98-33.05Q270.83-33.05 274.01-30.83 277.18-28.6 277.18-24.6L277.18-24.6Q277.18-22.4 275.46-20.15 273.73-17.9 270.18-16.7L270.18-16.7 276.98-3.45Q277.83-1.8 279.63-1.2L279.63-1.2 280.58-1 280.58 0 271.73 0 264.28-15.6 260.68-15.6Q260.68-12.05 260.68-9.2 260.68-6.35 260.73-3.85L260.73-3.85Q260.73-2.85 261.06-2.25 261.38-1.65 262.33-1.4L262.33-1.4 263.53-1.05 263.53 0ZM260.68-17.05L260.68-17.05 263.38-17.05Q266.93-17.05 268.58-18.85 270.23-20.65 270.23-24.35L270.23-24.35Q270.23-28.05 268.66-29.83 267.08-31.6 263.58-31.6L263.58-31.6 260.73-31.6Q260.73-29.65 260.71-27.63 260.68-25.6 260.68-23.08 260.68-20.55 260.68-17.05ZM307.03 0L282.23 0 282.23-1.05 283.23-1.4Q284.13-1.65 284.48-2.27 284.83-2.9 284.88-4L284.88-4 284.88-29.15Q284.83-30.2 284.53-30.78 284.23-31.35 283.28-31.65L283.28-31.65 282.23-32 282.23-33.05 306.03-33.05 306.38-25.05 304.98-25.05 302.98-29.55Q302.58-30.5 302.08-31.03 301.58-31.55 300.58-31.55L300.58-31.55 292.08-31.55Q292.03-28.45 292.03-25.18 292.03-21.9 292.03-17.8L292.03-17.8 296.98-17.8Q297.98-17.8 298.5-18.32 299.03-18.85 299.48-19.75L299.48-19.75 300.33-21.65 301.43-21.65 301.43-12.4 300.33-12.4 299.43-14.3Q299.03-15.2 298.53-15.75 298.03-16.3 297.03-16.3L297.03-16.3 292.03-16.3Q292.03-12.7 292.03-10.1 292.03-7.5 292.05-5.48 292.08-3.45 292.08-1.5L292.08-1.5 301.68-1.5Q302.68-1.5 303.23-2.02 303.78-2.55 304.13-3.5L304.13-3.5 305.98-8 307.38-8 307.03 0Z" opacity="1" transform="matrix(1,0,0,1,0,0)" fill="#000000" class="undefined-text-0" data-fill-palette-color="primary" id="text-0"></path></svg></g></svg></g></svg></g></svg></g></svg></g></svg></g></svg></g><g mask="url(#bda399c1-daa1-45e7-82b9-30ef75bf7223)"><g transform="matrix(2.7244444444444444, 0, 0, 2.7244444444444444, 90.96177569919162, 1)"><svg xmlns="http://www.w3.org/2000/svg" xmlns:xlink="http://www.w3.org/1999/xlink" version="1.1" x="0" y="0" viewBox="10.100000381469727 5.199999809265137 78.4000015258789 90" enable-background="new 0 0 100 100" xml:space="preserve" height="90" width="78.4000015258789" class="icon-none" data-fill-palette-color="accent" id="none"><polygon fill-rule="evenodd" clip-rule="evenodd" fill="#000000" points="88.5,28.2 68.4,59.9 68.5,22.3 " data-fill-palette-color="accent"></polygon><polygon fill-rule="evenodd" clip-rule="evenodd" fill="#000000" points="49.8,5.2 67.2,38.5 34.7,19.6 " data-fill-palette-color="accent"></polygon><polygon fill-rule="evenodd" clip-rule="evenodd" fill="#000000" points="67.8,38.3 67.8,22.3 60.8,24.5 " data-fill-palette-color="accent"></polygon><polygon fill-rule="evenodd" clip-rule="evenodd" fill="#000000" points="88.2,73.2 50.6,71.7 83.2,52.9 " data-fill-palette-color="accent"></polygon><polygon fill-rule="evenodd" clip-rule="evenodd" fill="#000000" points="69.1,60.3 82.8,52.3 77.4,47.4 " data-fill-palette-color="accent"></polygon><polygon fill-rule="evenodd" clip-rule="evenodd" fill="#000000" points="48.7,95.2 31.5,61.9 63.9,80.9 " data-fill-palette-color="accent"></polygon><polygon fill-rule="evenodd" clip-rule="evenodd" fill="#000000" points="50.5,72.2 64.2,80.2 65.8,73.1 " data-fill-palette-color="accent"></polygon><polygon fill-rule="evenodd" clip-rule="evenodd" fill="#000000" points="10.1,72 30.5,40.4 30.1,78 " data-fill-palette-color="accent"></polygon><polygon fill-rule="evenodd" clip-rule="evenodd" fill="#000000" points="30.9,62.1 30.8,78 37.8,75.8 " data-fill-palette-color="accent"></polygon><polygon fill-rule="evenodd" clip-rule="evenodd" fill="#000000" points="11,27 48.5,28.9 15.8,47.3 " data-fill-palette-color="accent"></polygon><polygon fill-rule="evenodd" clip-rule="evenodd" fill="#000000" points="30,40.1 16.1,47.9 21.5,52.9 " data-fill-palette-color="accent"></polygon><polygon fill-rule="evenodd" clip-rule="evenodd" fill="#000000" points="48.2,28.3 34.5,20.2 32.9,27.4 " data-fill-palette-color="accent"></polygon></svg></g></g></svg></g><defs><mask id="bda399c1-daa1-45e7-82b9-30ef75bf7223"><rect width="640" height="400" fill="white"></rect><rect width="348.05760000000004" height="52.931504207913804" fill="black" x="145.97119999999998" y="173.5342478960431" id="transform-me" transform="matrix(1,0,0,1,-122.24000000000001,-76.4)"></rect></mask></defs></svg><rect width="395.52" height="247.2" fill="none" stroke="none" visibility="hidden"></rect></g></svg></g></svg>